<svg xmlns="http://www.w3.org/2000/svg" width="2304.959" height="459.921" viewBox="0 0 609.854 121.687"><path d="M169.75 90.606V30.943h1.681v59.663z" fill-opacity=".337"/><path d="M76.333 25.726h22.074v9.344H76.333c2.32 14.8 14.737 25.46 29.725 25.46 16.618 0 30.101-13.483 30.101-30.101 0-16.681-13.483-30.164-30.1-30.164-14.989 0-27.405 10.661-29.726 25.46z" fill="#0c9fd2"/><path d="M76.333 25.726h22.074v9.344H76.333c2.32 14.8 14.737 25.46 29.725 25.46 16.618 0 30.101-13.483 30.101-30.101 0-16.681-13.483-30.164-30.1-30.164-14.989 0-27.405 10.661-29.726 25.46z" fill="none"/><path d="M60.091 35.07H38.017v-9.344h22.074C57.771 10.926 45.354.266 30.366.266 13.748.265.266 13.747.266 30.428c0 16.618 13.482 30.101 30.1 30.101 14.988 0 27.405-10.66 29.725-25.46z" fill="#0c9fd2"/><path d="M60.091 35.07H38.017v-9.344h22.074C57.771 10.926 45.354.266 30.366.266 13.748.265.266 13.747.266 30.428c0 16.618 13.482 30.101 30.1 30.101 14.988 0 27.405-10.66 29.725-25.46z" fill="none"/><path d="M72.445 61.534V83.67H63.04V61.534c-14.738 2.383-25.4 14.8-25.4 29.786 0 16.618 13.483 30.101 30.1 30.101 16.62 0 30.165-13.483 30.165-30.1 0-14.989-10.661-27.405-25.46-29.788z" fill="#0c9fd2"/><path d="M72.445 61.534V83.67H63.04V61.534c-14.738 2.383-25.4 14.8-25.4 29.786 0 16.618 13.483 30.101 30.1 30.101 16.62 0 30.165-13.483 30.165-30.1 0-14.989-10.661-27.405-25.46-29.788z" fill="none"/><g><path d="M191.347 29h26.439c2.73-.3 2.857 5.884 0 5.884h-9.296v22.047c0 2.6-3.412 1.919-5.885 1.919-1.066 0-1.962-.853-1.962-1.92V34.885h-9.296c-2.729.299-2.857-5.885 0-5.885zm44.733 18.933h-5.075v8.955c.043 2.601-3.411 1.876-5.884 1.962a1.984 1.984 0 01-1.962-1.962V30.96c0-1.109.853-1.962 1.919-1.962h17.185c6.226 0 10.874 3.582 10.874 9.467 0 4.606-3.54 6.738-7.846 7.59 3.454 1.28 6.268 7.548 8.528 10.832.725 1.066.384 1.962-.724 1.962-3.582-.086-6.61.554-8.188-1.962l-3.54-5.544c-1.065-1.663-2.6-3.411-5.287-3.411zm3.795-13.049h-8.87v7.164h8.87c2.388 0 5.416-.853 5.416-3.582 0-2.73-3.028-3.582-5.416-3.582zm17.74 22.046V30.962c0-2.644 3.369-1.962 5.842-1.962 1.109 0 2.004.853 2.004 1.962v25.927c0 2.601-3.411 1.876-5.885 1.962-1.066 0-1.961-.853-1.961-1.92zm21.407-.042c0 2.516-3.199 1.919-5.63 1.962a1.984 1.984 0 01-1.96-1.962V30.96c.17-3.198 5.116-1.962 8.059-1.962 1.023 0 2.217.981 2.857 1.962l12.58 19.36V30.918c0-2.473 3.155-1.876 5.543-1.919a1.93 1.93 0 011.962 1.962v25.927a1.956 1.956 0 01-1.962 1.962h-6.908c-1.109 0-2.345-.896-3.028-1.962L279.022 39.02v8.934zm29.381.042V30.962c0-2.644 3.369-1.962 5.842-1.962 1.109 0 2.004.853 2.004 1.962v25.927c0 2.601-3.411 1.876-5.885 1.962-1.066 0-1.961-.853-1.961-1.92zM321.622 29h26.44c2.728-.3 2.856 5.884 0 5.884h-9.297v22.047c0 2.6-3.412 1.919-5.885 1.919-1.066 0-1.962-.853-1.962-1.92V34.885h-9.296c-2.729.299-2.857-5.885 0-5.885zm40.725 27.93v-8.74l-11.13-17.228c-.64-.981-.341-1.962.725-1.962h3.965c1.706 0 2.9.853 3.625 1.962l6.738 10.405 6.737-10.405c.725-1.109 1.92-1.962 3.625-1.962h3.966c1.066 0 1.364.981.725 1.962l-11.13 17.228v8.742c0 2.6-3.412 1.919-5.885 1.919-1.066 0-1.961-.853-1.961-1.92zM399.958 56.888V30.96c0-1.066.853-1.962 1.962-1.962h16.929c5.33 0 10.831 2.303 10.831 8.486 0 2.132-.725 3.795-2.814 5.501 2.814 1.493 4.008 4.094 4.008 6.908 0 5.928-5.202 8.956-11.044 8.956h-17.91a1.956 1.956 0 01-1.962-1.962zm18.976-22.26h-11.13v5.97h11.13c1.749 0 2.9-1.066 2.9-2.985 0-1.919-1.151-2.985-2.9-2.985zm.768 11.429h-11.898v7.164h11.898c2.217 0 3.326-1.45 3.326-3.582 0-2.133-1.109-3.582-3.326-3.582zm12.963 10.873l5.245-19.829c3.028-10.149 13.646-7.803 25.032-8.102 1.023 0 1.791.896 1.791 1.92V56.93c0 2.6-3.411 1.919-5.885 1.919-3.027 0-1.663-4.478-1.961-7.207h-14.798c-1.066 2.516-.64 7.207-3.88 7.207-2.303 0-6.226.81-5.544-1.92zm12.793-17.867l-1.833 6.695h13.262V34.884h-5.928c-2.686 0-4.818 1.62-5.5 4.179zm47.803 1.535c0-7.718-8.017-5.245-14.712-5.714v11.428c6.695-.426 14.712 2.005 14.712-5.714zM472.622 29h15.906c7.932 0 12.58 3.582 12.58 11.6 0 8.016-4.648 11.598-12.58 11.598h-9.979c-.213 2.644.896 6.653-1.961 6.653-2.516 0-5.885.64-5.885-1.962V30.96c0-1.109.853-1.962 1.919-1.962zm31.727 0h26.438c2.73-.3 2.858 5.884 0 5.884h-9.296v22.047c0 2.6-3.411 1.919-5.885 1.919-1.066 0-1.961-.853-1.961-1.92V34.885h-9.296c-2.73.299-2.857-5.885 0-5.885zm31.811 27.93V30.962c0-2.644 3.37-1.962 5.843-1.962 1.108 0 2.004.853 2.004 1.962v25.927c0 2.601-3.412 1.876-5.885 1.962-1.066 0-1.962-.853-1.962-1.92zm12.367-19.402c0-5.117 2.985-8.7 13.22-8.7h5.287c5.373 0 11.13 3.114 11.13 7.676 0 3.07-2.09 2.303-4.605 2.303-1.194 0-2.175-.512-2.815-1.961-1.322-3.028-6.652-2.133-10.703-2.133-2.559 0-3.668.896-3.668 2.388 0 4.947 22.559 2.09 22.559 13.22 0 5.117-2.985 8.7-13.22 8.7h-6.31c-5.374 0-11.13-3.114-11.13-7.677 0-3.07 2.089-2.302 4.605-2.302 1.194 0 2.174.554 2.814 1.961 1.45 3.198 7.42 2.132 11.727 2.132 2.559 0 3.667-.895 3.667-2.388 0-4.946-22.558-2.175-22.558-13.22zM581.32 29h26.439c2.729-.3 2.857 5.884 0 5.884h-9.297v22.047c0 2.6-3.411 1.919-5.884 1.919-1.067 0-1.962-.853-1.962-1.92V34.885h-9.296c-2.73.299-2.857-5.885 0-5.885zM192.323 79.469c0-7.924 4.01-11.544 11.805-11.544h3.554c4.435 0 9.163 2.38 9.163 7.011 0 2.348-1.598 1.761-3.522 1.761-.913 0-1.728-.391-2.282-1.76-.979-2.414-3.392-2.512-6.75-2.512-4.696 0-5.968 1.728-5.968 7.044 0 5.315 1.272 7.043 5.968 7.043h3.163c1.956 0 3.195-.978 3.913-2.51.946-2.022 1.891-1.761 4.174-1.761.424 0 1.63.293 1.63 1.76 0 4.631-4.728 7.012-9.163 7.012h-3.88c-7.794 0-11.805-3.62-11.805-11.544zm44.903 9.946V81.23H226.27v8.185c0 1.956-2.576 1.402-4.467 1.467-.848 0-1.533-.685-1.533-1.5V69.555c0-1.989 2.609-1.434 4.5-1.5.816 0 1.5.653 1.5 1.5v7.175h10.957v-7.175c0-2.021 2.576-1.5 4.468-1.5.848 0 1.532.653 1.532 1.5v19.827c0 1.99-2.608 1.435-4.5 1.5-.815 0-1.5-.652-1.5-1.467zm20.446-2.903h2.544c2.902 0 4.207-1.5 4.207-4.63V69.555c0-2.021 2.576-1.5 4.467-1.5.848 0 1.533.653 1.533 1.5V81.85c0 5.772-3.392 9.164-10.044 9.164h-2.87c-6.652 0-10.043-3.392-10.043-9.164V69.555c0-1.989 2.608-1.434 4.5-1.5.815 0 1.5.653 1.5 1.5v12.327c0 3.13 1.304 4.63 4.206 4.63zm26.871-3.978h-3.88v6.848c.032 1.99-2.61 1.435-4.5 1.5a1.518 1.518 0 01-1.501-1.5V69.555c0-.847.652-1.5 1.467-1.5h13.142c4.761 0 8.316 2.74 8.316 7.24 0 3.522-2.707 5.152-6 5.804 2.64.979 4.793 5.772 6.521 8.283.555.815.294 1.5-.554 1.5-2.74-.065-5.055.424-6.261-1.5l-2.707-4.24c-.815-1.27-1.989-2.608-4.043-2.608zm2.902-9.978h-6.783v5.478h6.783c1.826 0 4.141-.652 4.141-2.74 0-2.086-2.315-2.738-4.141-2.738zm12.261 6.913c0-7.924 4.011-11.544 11.805-11.544h3.554c4.435 0 9.164 2.38 9.164 7.011 0 2.348-1.598 1.761-3.522 1.761-.913 0-1.729-.391-2.283-1.76-.978-2.414-3.391-2.512-6.75-2.512-4.696 0-5.968 1.728-5.968 7.044 0 5.315 1.272 7.043 5.968 7.043h3.163c1.957 0 3.196-.978 3.913-2.51.946-2.022 1.891-1.761 4.174-1.761.424 0 1.63.293 1.63 1.76 0 4.631-4.728 7.012-9.163 7.012h-3.88c-7.794 0-11.805-3.62-11.805-11.544zm44.904 9.946V81.23h-10.957v8.185c0 1.956-2.576 1.402-4.468 1.467-.848 0-1.532-.685-1.532-1.5V69.555c0-1.989 2.608-1.434 4.5-1.5.815 0 1.5.653 1.5 1.5v7.175h10.956v-7.175c0-2.021 2.577-1.5 4.468-1.5.848 0 1.533.653 1.533 1.5v19.827c0 1.99-2.61 1.435-4.5 1.5-.816 0-1.5-.652-1.5-1.467z"/><path d="M368.09 100.884V70.652h2.98v30.232zM409.357 89.41c0 1.888-2.399 1.44-4.222 1.472-.8 0-1.47-.672-1.47-1.471V69.966c.127-2.4 3.837-1.472 6.044-1.472.767 0 1.663.736 2.143 1.472l9.434 14.52V69.934c0-1.855 2.367-1.408 4.158-1.44.832 0 1.471.64 1.471 1.472V89.41c0 .8-.64 1.471-1.47 1.471h-5.182c-.832 0-1.759-.672-2.27-1.471l-8.636-13.4v6.7zm20.181.033l3.934-14.872c2.27-7.612 10.234-5.853 18.773-6.077.768 0 1.344.672 1.344 1.44v19.509c0 1.95-2.559 1.44-4.414 1.44-2.27 0-1.247-3.359-1.471-5.406h-11.098c-.8 1.887-.48 5.405-2.91 5.405-1.727 0-4.67.608-4.158-1.44zm9.595-13.4l-1.376 5.02h9.947v-8.154h-4.446c-2.015 0-3.614 1.215-4.125 3.134zm18.933 13.4V69.966c0-1.983 2.527-1.472 4.382-1.472.831 0 1.503.64 1.503 1.472V89.41c0 1.95-2.559 1.407-4.414 1.471-.8 0-1.47-.64-1.47-1.44zm20.054-6.748h-3.807v6.716c.032 1.95-2.558 1.407-4.413 1.471-.8 0-1.471-.672-1.471-1.471V69.966c0-.832.64-1.472 1.439-1.472h12.889c4.67 0 8.155 2.687 8.155 7.1 0 3.455-2.654 5.054-5.885 5.693 2.591.96 4.702 5.661 6.397 8.124.544.8.288 1.471-.544 1.471-2.686-.064-4.957.416-6.14-1.471l-2.655-4.158c-.8-1.247-1.95-2.558-3.966-2.558zm2.846-9.787h-6.653v5.373h6.653c1.79 0 4.061-.64 4.061-2.686 0-2.047-2.27-2.687-4.061-2.687zm24.594-.672c-4.797 0-6.684 2.655-6.684 7.452 0 4.798 1.887 7.452 6.684 7.452 4.798 0 6.685-2.654 6.685-7.452 0-4.797-1.887-7.452-6.685-7.452zm-12.569 7.452c0-8.315 4.574-11.673 12.57-11.673 7.995 0 12.568 3.358 12.568 11.673 0 8.316-4.573 11.674-12.569 11.674-7.995 0-12.569-3.358-12.569-11.674zm28.337 9.722V69.967c0-.8.64-1.472 1.47-1.472h12.698c3.998 0 8.123 1.727 8.123 6.365 0 1.599-.543 2.846-2.11 4.126 2.11 1.119 3.006 3.07 3.006 5.18 0 4.446-3.902 6.717-8.284 6.717H522.8a1.467 1.467 0 01-1.471-1.471zm14.232-16.694h-8.348v4.478h8.348c1.311 0 2.175-.8 2.175-2.24 0-1.438-.864-2.238-2.175-2.238zm.575 8.571h-8.923v5.373h8.923c1.663 0 2.495-1.087 2.495-2.686 0-1.6-.832-2.687-2.495-2.687zm11.578 8.156V69.966c0-1.983 2.527-1.472 4.382-1.472.831 0 1.503.64 1.503 1.472V89.41c0 1.95-2.559 1.407-4.414 1.471-.8 0-1.471-.64-1.471-1.44z" fill-opacity=".337"/></g></svg>